<svg id="Capa_1" enable-background="new 0 0 512 512" height="512" viewBox="0 0 512 512" width="512" xmlns="http://www.w3.org/2000/svg"><g><path d="m210.149 328.627h-134.925c-4.204 0-7.612 3.408-7.612 7.612s3.408 7.612 7.612 7.612h73.82v38.239c0 4.204 3.408 7.612 7.612 7.612s7.612-3.408 7.612-7.612v-38.239h22.986v38.239c0 4.204 3.408 7.612 7.612 7.612s7.612-3.408 7.612-7.612v-38.239h7.671c4.204 0 7.612-3.408 7.612-7.612s-3.408-7.612-7.612-7.612z" fill="#4a66a0"/><path d="m416.478 382.09h-30.568v-366.806c0-8.441 6.843-15.284 15.284-15.284 8.441 0 15.284 6.843 15.284 15.284z" fill="#4a66a0"/><path d="m471.853 213.967h-82.453c-130.478-62.905-11.59-152.837-11.59-152.837h83.153c10.839 0 17.172 8.19 10.921 14.128-18.259 17.325-27.312 37.492-27.312 57.617 0 22.602 11.418 45.154 34.03 63.545l3.573 2.902c7.186 5.846.984 14.645-10.322 14.645z" fill="#dedef9"/><path d="m389.401 213.967h-56.998c-3.999 0-7.785-1.198-10.322-3.258l-1.482-1.198c-49.823-40.526-44.342-99.97 12.555-136.071l15.508-9.855c2.487-1.573 5.775-2.456 9.195-2.456h19.954c-13.773 29.535-35.939 96.499 11.59 152.838z" fill="#d2d2ff"/><path d="m271.284 397.373h-30.567v-382.089c0-8.441 6.842-15.284 15.283-15.284 8.441 0 15.284 6.843 15.284 15.284z" fill="#687daa"/><path d="m357.644 275.106h-159.009c-181.397-94.611-10.504-229.251-10.504-229.251h173.187c-.223 2.486-1.38 5.004-3.633 7.307-27.109 27.718-40.546 59.992-40.546 92.196 0 36.162 16.949 72.242 50.523 101.655l5.308 4.659c10.666 9.347 1.45 23.434-15.326 23.434z" fill="#efedfe"/><path d="m198.635 275.106h-88.562c-5.927 0-11.55-1.918-15.325-5.217l-2.192-1.928c-73.979-64.833-65.839-159.932 18.633-217.711l6.424-4.395h70.517c-27.422 49.011-54.968 135.31 10.505 229.251z" fill="#dedef9"/><path d="m126.09 382.09c-9.582-32.791-37.451-52.856-48.855-65.104-11.326-12.165-27.475-18.955-44.3-18.955-7.638 0-13.83 6.054-13.83 13.522 0 5.154 2.986 9.884 7.729 12.131 39.428 18.686 41.226 66.666 41.226 66.666l58.03 35.534z" fill="#c76d33"/><path d="m469.97 397.373h-191.045l29.098-18.186c21.03-13.144 38.476-31.292 50.78-52.824 7.311-12.795 20.918-20.691 35.655-20.691h75.512z" fill="#df8a57"/><path d="m482.365 391.879h-20.037v-100.093c0-9.213 6.843-16.682 15.284-16.682 8.441 0 15.284 7.469 15.284 16.682v89.562c0 5.816-4.715 10.531-10.531 10.531z" fill="#d97c41"/><path d="m408.836 336.239c-12.661 0-22.925 10.264-22.925 22.925v22.926l22.925 15.284 22.925-15.284v-22.926c0-12.661-10.264-22.925-22.925-22.925z" fill="#a4e7ff"/><path d="m492.893 382.09v15.285c0 29.352-11.032 56.136-29.189 76.414l-174.801 23.16-42.749-5.45c-68.162-50.158-4.456-109.409-4.456-109.409z" fill="#e4996d"/><path d="m246.154 491.499-139.096-17.71c-24.815-28.946-38.283-65.229-41.399-74.293-.467-1.37-.7-2.801-.7-4.252 0-7.267 5.887-13.153 13.143-13.153h163.596c-6.353 29.837-9.611 70.333 4.456 109.408z" fill="#d97c41"/><path d="m385.909 275.106c0 4.222-1.705 8.048-4.476 10.809s-6.587 4.476-10.809 4.476h-181.478c-25.83-13.133-1.563-30.569-1.563-30.569h183.042c8.444 0 15.284 6.84 15.284 15.284z" fill="#5972a5"/><path d="m189.146 290.391h-85.985c-8.434 0-15.285-6.84-15.285-15.285 0-4.222 1.715-8.048 4.476-10.809 2.771-2.76 6.597-4.476 10.809-4.476h84.422c-2.172 7.684-4.009 19.903 1.563 30.57z" fill="#4a66a0"/><path d="m362.982 45.855c0 4.212-1.715 8.038-4.476 10.799-2.761 2.771-6.587 4.476-10.809 4.476h-169.32c-27.139-14.717 1.523-30.56 1.523-30.56h167.798c8.444 0 15.284 6.841 15.284 15.285z" fill="#5972a5"/><path d="m178.377 61.13h-59.931c-8.434 0-15.285-6.841-15.285-15.275 0-4.222 1.715-8.048 4.476-10.809 2.771-2.761 6.597-4.476 10.809-4.476h61.454c-2.984 7.135-5.866 18.502-1.523 30.56z" fill="#4a66a0"/><circle cx="271.284" cy="427.94" fill="#a4e7ff" r="15.284"/><circle cx="362.985" cy="427.94" fill="#a4e7ff" r="15.284"/><circle cx="179.582" cy="427.94" fill="#5ad6ff" r="15.284"/><path d="m463.703 473.788c-20.988 23.455-51.487 38.212-85.436 38.212h-122.948s-30.854-13.803-14.392-38.212z" fill="#d97c41"/><path d="m255.319 512h-75.734c-30.438 0-54.481-17.172-72.527-38.212h133.869c2.994 12.839 7.622 25.718 14.392 38.212z" fill="#c76d33"/><ellipse cx="102.567" cy="174.465" fill="#ffa1ac" rx="23.866" ry="29.969" transform="matrix(.002 -1 1 .002 -72.123 276.649)"/><ellipse cx="265.011" cy="174.82" fill="#ffa1ac" rx="23.866" ry="29.97" transform="matrix(.002 -1 1 .002 89.612 439.449)"/><g fill="#3d4751"><path d="m120.32 136.897c-4.204 0-7.612 3.408-7.612 7.612v12.179c0 4.204 3.408 7.612 7.612 7.612s7.612-3.408 7.612-7.612v-12.179c0-4.204-3.408-7.612-7.612-7.612z"/><path d="m247.082 136.897c-4.204 0-7.612 3.408-7.612 7.612v12.179c0 4.204 3.408 7.612 7.612 7.612s7.612-3.408 7.612-7.612v-12.179c0-4.204-3.408-7.612-7.612-7.612z"/><path d="m213.229 156.338c-4.204 0-7.612 3.408-7.612 7.612 0 3.893-3.167 7.059-7.059 7.059-3.893 0-7.059-3.167-7.059-7.059 0-4.204-3.408-7.612-7.612-7.612s-7.612 3.408-7.612 7.612c0 3.893-3.167 7.059-7.059 7.059s-7.059-3.167-7.059-7.059c0-4.204-3.408-7.612-7.612-7.612s-7.612 3.408-7.612 7.612c0 12.287 9.996 22.283 22.283 22.283 5.615 0 10.748-2.092 14.671-5.532 3.923 3.44 9.056 5.532 14.671 5.532 12.287 0 22.283-9.996 22.283-22.283 0-4.204-3.408-7.612-7.612-7.612z"/></g></g></svg>