<?xml version="1.0" encoding="UTF-8"?><svg xmlns="http://www.w3.org/2000/svg" class="header" enable-background="new 0 0 275 100" fill="none" height="40px" preserveAspectRatio="xMidYMid meet" viewBox="0 0 275 100" width="110px"><g clip-path="url(#clip0_8316_26474)"><path d="M25.005 27.2274C23.1908 19.4454 23.5287 15.1055 24.3191 12.5211H19.9076C19.7673 16.4443 20.5577 21.3512 21.8979 27.2274L34.4264 85.6633L36.4381 81.4079L25.0092 27.2274H25.0064H25.005Z" fill="#0F51EC"/><path d="M33.2845 12.5211H28.3876C26.9443 15.6811 26.562 19.4583 28.1256 27.2274L38.4849 77.0623L40.541 72.7654L31.2269 27.2289C29.9325 20.2186 30.176 15.2473 33.283 12.5225L33.2845 12.5211Z" fill="#0F51EC"/><path d="M5.73878 12.5212H0C4.85534 14.5387 7.98102 19.0747 9.67345 27.1918C9.71927 27.2806 23.1441 89.9647 23.1441 89.9647H26.2068L12.6631 27.1173C11.3716 20.906 9.2396 14.1235 5.73878 12.5212Z" fill="#0F51EC"/><path d="M15.9281 12.5211H10.7549C12.8754 14.6917 14.555 21.4944 15.7978 27.2274L29.2498 89.9645H32.3125L18.7975 27.2274C17.3327 20.4978 16.2789 15.1113 15.9295 12.5211H15.9281Z" fill="#0F51EC"/><path d="M45.9831 12.5211H38.5676C36.4228 13.6179 32.4151 17.0471 34.381 27.2274L42.5567 68.4641L44.6128 64.12L37.4923 27.2274C36.0977 18.3887 38.0092 14.2851 45.9831 12.5211Z" fill="#0F51EC"/><path d="M60.9564 18.7667C60.8361 16.0878 60.0558 14.0918 58.4765 12.5211H52.3525C55.3207 13.7238 57.2437 15.6253 58.1515 18.7438C59.3986 23.0307 58.7285 29.6186 56.2228 39.8547L56.4275 40.0523C59.4158 30.0338 61.164 23.383 60.9564 18.7667Z" fill="#0F51EC"/><path d="M69.5739 12.5211H63.304C63.5316 14.5657 63.4486 16.6763 63.0878 18.9987C62.2573 24.3509 59.9549 30.827 56.6016 40.2213L56.802 40.4146C61.6989 28.7036 64.8532 21.1765 66.4082 18.0809C66.9952 16.9111 68.049 14.7834 69.5739 12.5211Z" fill="#0F51EC"/><path d="M75.1855 12.5211C72.518 14.1548 70.2557 16.4042 67.9204 19.7733C64.7876 24.2907 61.5244 30.8213 56.9727 40.5792L57.1617 40.7611V40.7668C62.1144 31.3339 65.9531 25.0697 70.167 20.7026C73.9714 16.7636 78.589 14.0431 83.9827 12.5211H75.1855Z" fill="#0F51EC"/><path d="M119.082 39.8464C118.862 35.5495 116.457 33.4848 113.31 33.4848C107.889 33.4848 102.932 38.0537 98.9486 46.1693L98.582 47.8303C102.404 40.1399 106.829 35.6368 111.471 35.6368C114.142 35.6368 116.192 37.481 116.368 41.0348C116.763 48.8426 109.431 57.1773 102.784 59.6329L102.925 59.7689C110.983 57.7672 119.591 48.8225 119.08 39.8464H119.082Z" fill="#0F51EC"/><path d="M113.659 42.2634C113.526 39.3224 111.955 37.746 109.548 37.746C105.748 37.746 101.724 41.9527 98.1435 49.8177L97.7168 51.9397C100.927 44.3267 104.68 39.9381 107.758 39.9381C109.681 39.9381 110.821 41.2998 110.948 43.4919C111.209 48.887 106.408 56.6919 102.425 59.2836L102.559 59.4153C107.996 56.9425 114.007 48.7997 113.657 42.2634H113.659Z" fill="#0F51EC"/><path d="M124.641 37.4351C124.641 37.4351 124.641 37.4366 124.641 37.438H124.638L124.641 37.4351C124.379 31.8224 121.099 29.2365 117.077 29.2365C109.789 29.2365 103.46 35.0039 99.6928 42.7902L99.3076 44.5399C103.073 36.7579 109.017 31.4186 115.235 31.4186C118.778 31.4186 121.664 33.7439 121.928 38.6608C122.496 49.0545 112.93 57.8616 103.225 60.0624L103.361 60.1955C114.744 58.4974 125.25 48.9327 124.64 37.4366L124.641 37.4351Z" fill="#0F51EC"/><path d="M108.066 44.7204C107.979 43.1411 107.322 42.0414 105.748 42.0414C103.384 42.0414 100.333 46.629 97.3175 53.5705L97.0469 54.7948C98.7765 51.2138 101.884 44.6474 103.955 44.245C104.852 44.0718 105.556 44.8335 105.678 45.989C105.987 48.9328 104.165 54.9809 102.027 58.8884L102.163 59.0287C105.077 56.3898 108.284 48.7138 108.066 44.7218V44.7204Z" fill="#0F51EC"/><path d="M87.6443 29.1937C71.9614 29.1937 64.1322 39.5989 61.5205 51.4344H61.6565C64.4543 40.4222 71.8526 30.3764 85.8903 30.3764C92.6686 30.3764 96.387 34.6318 96.6934 40.1601C97.0457 47.4023 94.6817 53.0165 92.2333 59.5085L80.707 90.0093H83.8571L95.2945 59.7705C97.9377 53.4633 100.307 46.0478 99.6244 40.0742C99.1777 33.9818 95.1642 29.1923 87.6428 29.1923L87.6443 29.1937Z" fill="#0F51EC"/><path d="M93.8115 40.5052V40.511C93.5567 35.4695 90.2234 31.562 84.1481 31.562C71.6855 31.562 64.5922 40.8675 61.9189 51.4344H62.055C64.8313 41.6936 71.1571 32.7891 82.3096 32.7891C87.6446 32.7891 90.6186 36.1238 90.8405 40.6413C91.1469 46.6549 88.3491 53.2356 86.1198 59.2436L74.2413 90.0093H77.3913L89.0879 59.4985C89.0879 59.4985 94.1709 47.5713 93.8115 40.5038V40.5052Z" fill="#0F51EC"/><path d="M88.164 40.74V40.7342H88.1669C87.9364 36.8325 85.3691 33.8944 80.7758 33.8944C70.9563 33.8944 65.0199 42.4224 62.3252 51.4415H62.4612C65.259 43.0624 70.8432 35.0799 78.9788 35.0799C82.8734 35.0799 85.0584 37.537 85.2345 40.959C85.4965 45.6955 82.2606 53.4188 80.1186 58.8168L67.8979 90.0093H71.1753L83.1784 58.9471C85.0655 54.4369 88.4862 46.1881 88.164 40.7385V40.74Z" fill="#0F51EC"/><path d="M77.1938 58.3786C79.2327 53.2484 82.7021 45.3461 82.4859 41.1308C82.3126 38.323 80.5199 36.3485 77.3699 36.3485C70.5988 36.3485 65.3397 43.6508 62.781 51.4385H62.917C65.5516 44.55 70.1993 37.534 75.6646 37.534C78.0701 37.534 79.4676 38.8957 79.6021 41.2224C79.7754 45.0383 75.971 53.5977 74.1798 58.3801L61.6055 90.0121H64.7555L77.1995 58.3829L77.1938 58.3801V58.3786Z" fill="#0F51EC"/><path d="M76.7982 41.4802C76.7252 39.6847 75.7043 38.6724 74.0004 38.6724C70.0657 38.6724 65.8247 44.8908 63.1915 51.4372H63.3275C65.9063 45.6454 69.9254 39.9009 72.202 39.9009C73.1628 39.9009 73.8214 40.382 73.8644 41.6105C73.9947 44.1978 69.7536 53.8512 68.0497 58.0207L55.2549 90.0093H58.4049L71.1539 58.0207C74.964 48.4719 76.8984 43.9659 76.7982 41.4788V41.4802Z" fill="#0F51EC"/><path d="M179.776 44.1646C180.083 40.6996 178.552 38.6392 176.015 38.2856C172.304 37.7644 167.561 40.5836 164.162 45.0008C164.162 45.0008 164.264 45.0982 164.28 45.1125C167.183 41.6718 170.988 39.2964 173.697 39.6902C175.489 39.9092 176.668 41.5344 176.452 44.1217C175.358 56.0145 160.803 83.593 147.202 89.515L147.122 89.7141C162.743 85.0091 178.548 57.5895 179.776 44.1646Z" fill="#0F51EC"/><path d="M193.291 44.607C193.99 37.1028 190.666 33.2869 185.464 32.5395C177.997 31.4885 168.859 36.1277 163.348 44.2247L163.47 44.3407C168.543 37.4536 176.673 33.0206 183.146 33.8983C187.606 34.514 190.626 37.9347 190.012 44.5139C188.265 63.2337 169.737 88.9465 146.847 90.3912L146.776 90.5645C171.878 89.9044 191.407 64.7901 193.289 44.6041L193.291 44.607Z" fill="#0F51EC"/><path d="M186.597 44.4754C187.122 38.9041 184.585 35.9617 180.825 35.4348C175.132 34.6516 168.103 38.4617 163.765 44.62L163.885 44.7345C168.042 39.4253 173.871 36.1779 178.379 36.7936C181.615 37.2332 183.626 39.7346 183.189 44.252C181.748 59.5912 166.323 85.8395 147.021 89.9675L146.949 90.145C167.987 87.164 185.066 61.2349 186.598 44.4739L186.597 44.4754Z" fill="#0F51EC"/><path d="M143.599 87.0107C143.859 83.8105 146.353 78.0589 147.447 75.2511L168.574 22.4294L177.543 -0.000244141L173.577 0.810172C173.301 1.79527 166.873 18.9185 165.403 22.6127L144.698 74.1629C143.55 76.9578 141.368 82.6207 141.238 85.7364C141.195 87.098 142.3 89.0668 144.164 89.6538L144.244 89.4491C143.822 89.1226 143.513 88.1934 143.597 87.0107H143.599Z" fill="#0F51EC"/><path d="M138.613 84.3289C138.919 81.1718 141.104 75.4688 142.066 72.88L162.497 22.2018C163.103 20.5967 170.189 3.20715 169.351 1.67366L165.255 2.51128C165.425 5.79733 162.56 13.8242 159.304 21.9555L139.231 71.7961C138.053 74.6426 136.293 79.6812 136.033 82.8814C135.686 86.9277 139.336 89.2029 144.039 89.9689L144.105 89.8043C140.78 89.2244 138.298 87.5735 138.613 84.3304V84.3289Z" fill="#0F51EC"/><path d="M128.294 78.4126C128.593 74.989 130.175 70.9541 131.265 68.278L150.079 21.7163C151.731 17.4767 155.955 8.3187 153.518 4.90952L149.396 5.75143C152.263 9.72763 148.765 17.113 146.91 21.7163L128.584 67.0954C127.49 69.8144 126.066 73.4985 125.762 76.9249C125.155 84.1742 131.555 90.1135 143.77 90.649L143.835 90.4843C133.647 89.8285 127.724 84.9116 128.292 78.4111L128.294 78.4126Z" fill="#0F51EC"/><path d="M133.538 81.3479C133.834 77.9244 135.594 73.3167 136.688 70.5089L156.374 21.7594C157.419 19.0088 162.571 7.1003 161.378 3.30309L157.501 4.09489C159.679 6.88123 154.482 18.5893 153.27 21.7193L133.981 69.4565C132.842 72.2643 131.181 76.567 130.916 79.7671C130.393 85.5775 135.151 89.664 143.907 90.3068L143.967 90.1565C139.553 89.3976 132.955 88.0646 133.538 81.3465V81.3479Z" fill="#0F51EC"/><path d="M123.22 75.3427C123.526 71.9163 124.793 68.7591 125.89 65.9513L143.754 21.7163C145.807 16.4629 148.527 10.3032 145.854 6.47592L141.974 7.26916C144.714 10.223 143.626 14.109 140.595 21.7163L123.089 65.0736C122.084 67.7067 121.033 70.4716 120.725 73.8951C119.604 84.3647 132.942 90.9998 143.632 90.9998L143.701 90.8265C129.976 90.1221 122.518 83.2836 123.22 75.3427Z" fill="#0F51EC"/><path d="M190.267 29.6902C180.821 28.3729 169.402 33.9914 162.927 43.8209L163.045 43.9326C169.167 35.2471 179.509 29.8191 187.907 31.0046C193.594 31.7936 197.483 36.1377 196.699 44.65C194.751 66.1604 175.253 90.4342 146.68 90.8122L146.604 91.0012C177.657 91.0012 197.4 68.2695 200.149 44.7846C201.194 35.8628 196.693 30.5865 190.267 29.6902Z" fill="#0F51EC"/><path d="M246.209 30.7112C235.673 32.942 221.583 64.4652 221.276 82.429C221.233 85.9284 222.703 88.8608 226.838 89.7012L226.777 89.853C220.561 89.0669 218.305 84.3548 218.389 80.2311C218.766 61.7519 233.217 32.5869 246.272 30.5552L246.209 30.7112Z" fill="#0F51EC"/><path d="M246.732 29.4226C219.457 31.2124 201.41 46.1622 201.067 67.3762C200.939 75.2555 206.729 89.7886 226.318 91.0014L226.38 90.8453C210.093 89.8989 203.754 77.4706 204.042 69.5712C204.434 48.7595 222.315 31.6635 246.665 29.5844L246.73 29.4226H246.732Z" fill="#0F51EC"/><path d="M206.846 71.7218C206.712 78.3541 211.508 89.561 226.452 90.6678L226.513 90.5118C213.538 89.2217 209.728 79.8804 209.815 73.9154C210.162 54.0588 226.263 32.232 246.509 29.9668L246.572 29.8107C223.873 31.6077 207.255 51.281 206.843 71.7204L206.846 71.7218Z" fill="#0F51EC"/><path d="M212.574 75.9314C212.482 81.3538 216.257 89.342 226.609 90.2755L226.676 90.108C218.635 89.0985 215.354 83.0147 215.502 78.1722C215.853 59.159 230.994 32.5598 246.364 30.3319L246.427 30.1758C228.41 32.189 212.9 56.5731 212.574 75.9329V75.9314Z" fill="#0F51EC"/><path d="M229.768 89.7113C240.305 87.4805 254.394 55.9573 254.702 37.9936C254.745 34.4942 253.274 31.5618 249.139 30.7213L249.201 30.5695C255.416 31.3556 257.673 36.0678 257.589 40.1914C257.212 58.6706 242.761 87.8356 229.705 89.8674L229.768 89.7113Z" fill="#0F51EC"/><path d="M229.245 91C256.52 89.2102 274.567 74.2604 274.91 53.0464C275.038 45.167 269.248 30.634 249.659 29.4212L249.597 29.5773C265.884 30.5237 272.223 42.952 271.935 50.8514C271.543 71.6631 253.662 88.7591 229.312 90.8382L229.247 91H229.245Z" fill="#0F51EC"/><path d="M269.131 48.7009C269.265 42.0686 264.469 30.8617 249.525 29.7549L249.464 29.911C262.439 31.201 266.249 40.5423 266.162 46.5073C265.815 66.3639 249.714 88.1908 229.468 90.4559L229.405 90.612C252.104 88.8151 268.722 69.1417 269.134 48.7023L269.131 48.7009Z" fill="#0F51EC"/><path d="M263.401 44.4912C263.492 39.0689 259.718 31.0807 249.366 30.1471L249.299 30.3147C257.34 31.3241 260.62 37.408 260.473 42.2504C260.122 61.2637 244.98 87.8628 229.611 90.0907L229.548 90.2468C247.565 88.2337 263.074 63.8496 263.401 44.4898V44.4912Z" fill="#0F51EC"/></g><defs><clipPath id="clip0_8316_26474"><rect fill="white" height="91" width="274.911"/></clipPath></defs></svg>