<svg id="Layer_1" enable-background="new 0 0 496 496" height="512" viewBox="0 0 496 496" width="512" xmlns="http://www.w3.org/2000/svg"><path d="m491.95 203.15-459.61 167.38c-20.58-36.14-32.34-77.96-32.34-122.53 0-136.96 111.03-248 248-248 121.66 0 222.85 87.6 243.95 203.15z" fill="#755377"/><path d="m492.14 291.83c-24.54 32.6-18.13 58.41-18.13 58.41-8.82 19.45-20.07 37.57-33.37 53.95-148.76 64.81-377.5 9.12-377.5 9.12-11.71-13.08-22.05-27.42-30.8-42.78 8.42-22.19 15.24-58.46 16.97-132.54 3.7-157.51 11.07-115.42 83.58-147.91 9.44-4.23 17.44-35.93 26.75-40.45 58.45-28.33 114.06 49.08 145.16 73.75 57.92 45.96 102.49 38.1 143.89 53.76 16.6 6.28 30.9 15.14 43.26 26.01 2.66 14.55 4.05 29.54 4.05 44.85 0 14.96-1.32 29.6-3.86 43.83z" fill="#5b3c5c"/><path d="m354.568 385.251-86.677-50.989c-1.634-.961-2.717-2.637-2.923-4.521-.205-1.884.491-3.754 1.878-5.045l85.899-79.902 8.173 8.786-80.004 74.42 79.739 46.908z" fill="#b7c5f5"/><path d="m185.93 164.45v323.67h-.18c-40.56-10.49-77.1-30.98-106.83-58.69v-264.98z" fill="#f79f16"/><path d="m185.93 164.45v197.64c-94.87 11.55-97.49-146.54-95.88-197.64z" fill="#fbb53a"/><path d="m248 185.72h22.93v233.84h-22.93z" fill="#cdd9f8"/><path d="m352.44 224.21h22.93v195.35h-22.93z" fill="#cdd9f8"/><path d="m480.4 334.74c-1.96 5.25-4.09 10.42-6.39 15.5-9.468-9.468-79.543-79.543-88.81-88.81-2.81-2.81-6.17-4.97-9.83-6.34-3.12-1.2-6.46-1.82-9.87-1.82h-43.2c-4.29 0-8.55-.37-12.72-1.11-3.96-.69-7.85-1.71-11.63-3.04-10.04-3.52-19.28-9.22-27.02-16.81-.497-.447 2.261 2.254-59.72-59.69-5.23-5.23-12.32-8.17-19.71-8.17h-112.58v-26.16c0-9.03 7.32-16.36 16.36-16.36h49.04c13.1 0 23.72-10.62 23.72-23.72 0-2.25.91-4.28 2.38-5.75s3.5-2.38 5.75-2.38h12.29c7.64 0 14.98 3.04 20.38 8.45l29.85 29.84c48.467 48.489 49.553 49.554 69.72 69.72 1.34 1.34 2.81 2.54 4.38 3.57 2.42 1.6 5.07 2.8 7.85 3.56 1.11.32 2.24.56 3.38.73 1.35.2 2.71.3 4.09.3h53.91c15.71 0 30.78 6.24 41.89 17.35 15.184 15.184 53.433 53.433 68.23 68.23-13.52 18.4-11.74 42.91-11.74 42.91z" fill="#fa3377"/><g fill="#fa6695"><path d="m260.72 150.41c-9.61 12.25-26.77 20.68-33.99 16.82-10.51-5.64-16.02-18.39-27.69-21.89-7.36-2.2-47.49-.22-54.19.13-12.9.66-22.31-9.62-25.24-23.54h24.71c13.1 0 23.72-10.62 23.72-23.72 0-2.25.91-4.28 2.38-5.75s3.5-2.38 5.75-2.38h12.29c7.64 0 14.98 3.04 20.38 8.45l29.85 29.84 16.85 16.85z"/><path d="m451.96 251.65c-5.28 6.27-12.88 13.36-23.12 21.82-9.07 7.49-17.65-13.59-29.2-24.32-13.88-12.89-34.3-14.73-52.52-19.89-11.2-3.17-12.93-12.31-10.22-23.01h45.12c15.71 0 30.78 6.24 41.89 17.35l22.66 22.66z"/><path d="m320.64 205.22c-3.01 11.3-6.94 23.32-10.36 25.91-7.9 5.98-21.7-2.55-31.64-12.3-25.96-25.47-17.52-36.6-2.86-53.36l32.63 32.62c1.34 1.34 2.81 2.54 4.38 3.57 2.42 1.6 5.07 2.8 7.85 3.56z"/></g><path d="m264.02 153.71-35.86 35.85-8.49-8.48 35.87-35.86z" fill="#e40059"/><path d="m404.614 263.639h54.122v11.993h-54.122z" fill="#e40059" transform="matrix(.707 -.707 .707 .707 -64.226 384.215)"/><path d="m324.02 205.95-14.44 46.21c-3.96-.69-7.85-1.71-11.63-3.04l14.84-47.46c3.38 2.23 7.21 3.69 11.23 4.29z" fill="#e40059"/><path d="m158.96 133.7c-3.31 0-6 2.69-6 6v18.75h-41.08v-18.75c0-3.31-2.69-6-6-6s-6 2.69-6 6v267.81c0 3.32 2.69 6 6 6 2.65 0 4.9-1.72 5.69-4.1.2-.6.31-1.24.31-1.9v-25.47h41.08v23.18c0 3.32 2.69 6 6 6 2.2 0 4.12-1.18 5.16-2.95.54-.89.84-1.93.84-3.05v-265.52c0-3.31-2.69-6-6-6zm-47.08 109.39v-30.32h41.08v30.32zm41.08 12v30.31h-41.08v-30.31zm-41.08-54.32v-30.32h41.08v30.32zm0 96.63h41.08v30.32h-41.08zm41.08 72.64h-41.08v-30.32h41.08z" fill="#296dd4"/><path d="m440.64 404.19c-45.47 56.02-114.87 91.81-192.64 91.81-21.5 0-42.36-2.74-62.25-7.88-40.56-10.49-77.1-30.98-106.83-58.69-5.5-5.13-10.77-10.51-15.78-16.12l9.45-9.45c1.87-1.87 4.03-3.3 6.33-4.26 2.49-1.07 5.16-1.6 7.82-1.6 4.69 0 9.39 1.65 13.14 4.94.34.28.67.59 1 .92 3.02 3.02 6.77 4.88 10.69 5.55 1.14.21 2.29.31 3.45.31 3.54 0 7.09-.94 10.22-2.8 1.4-.84 2.72-1.86 3.92-3.06 3.9-3.9 9.02-5.86 14.14-5.86 3.33 0 6.66.83 9.66 2.49 1.61.88 3.13 2.01 4.49 3.37 1.97 1.96 4.24 3.44 6.67 4.41 2.39.97 4.93 1.45 7.47 1.45 5.12 0 10.23-1.96 14.14-5.86.07-.06.13-.13.2-.19 3.88-3.77 8.91-5.67 13.94-5.67 5.12 0 10.24 1.96 14.15 5.86 3.9 3.9 9.02 5.86 14.14 5.86s10.24-1.96 14.14-5.86c1.7-1.7 3.64-3.04 5.7-4 2.67-1.24 5.56-1.86 8.44-1.86 5.12 0 10.24 1.96 14.14 5.86.12.12.23.23.35.33 3.85 3.68 8.82 5.53 13.79 5.53 5.12 0 10.24-1.96 14.15-5.86s9.02-5.86 14.14-5.86 10.23 1.96 14.14 5.86 9.03 5.86 14.15 5.86c3.89 0 7.78-1.13 11.14-3.39 1.06-.71 2.06-1.53 3-2.47 3.9-3.9 9.02-5.86 14.14-5.86 1.95 0 3.9.28 5.79.86 3.06.92 5.94 2.59 8.35 5 3.16 3.16 7.12 5.05 11.24 5.64.96.15 1.93.22 2.9.22 5.12 0 10.24-1.96 14.15-5.86s9.02-5.86 14.14-5.86 10.23 1.96 14.14 5.86c.12.12.23.23.35.33z" fill="#13aff6"/><path d="m270.93 247.35v139.07c-5.73.92-11.7-2.7-12-16.09-.76-34.15-2.41-81.12-.81-115.24.48-10.41 6.84-10.28 12.81-7.74z" fill="#e0e7f9"/><path d="m375.37 267.98v117.9c-4.1-.84-7.93-4.18-9.59-7.25-4.69-8.71-2.96-103.2-2.96-103.31.33-9.35 5.94-11.19 12.55-7.34z" fill="#e0e7f9"/><path d="m492.14 291.83c-2.64 14.8-6.59 29.14-11.74 42.91-.81-.6-1.64-1.31-2.48-2.12-9.47-9.12-18.23-18.98-26.15-29.47-6.26-8.28-7.17-13.83 4.12-24.68 3.47-3.33 7.37-7.61 11.57-11.32z" fill="#fa6695"/><path d="m394.96 409.5c-21.31 16.01-54.09 33.19-103.69 44.6-81.13 18.66-138.51-21.09-166.03-47.18 1.4-.84 2.72-1.86 3.92-3.06 3.9-3.9 9.02-5.86 14.14-5.86s10.24 1.96 14.15 5.86 9.02 5.86 14.14 5.86 10.23-1.96 14.14-5.86 9.02-5.86 14.14-5.86 10.24 1.96 14.15 5.86c3.9 3.9 9.02 5.86 14.14 5.86s10.24-1.96 14.14-5.86 9.02-5.86 14.14-5.86 10.24 1.96 14.14 5.86 9.02 5.86 14.14 5.86 10.24-1.96 14.15-5.86 9.02-5.86 14.14-5.86 10.23 1.96 14.14 5.86 9.03 5.86 14.15 5.86 10.24-1.96 14.14-5.86 9.02-5.86 14.14-5.86 10.24 1.96 14.14 5.86c3.16 3.16 7.12 5.05 11.24 5.64z" fill="#2bc0f7"/></svg>