<svg id="Layer_1" enable-background="new 0 0 1200 1200" height="300" viewBox="0 0 1200 1200" width="300" xmlns="http://www.w3.org/2000/svg" version="1.1" xmlns:xlink="http://www.w3.org/1999/xlink" xmlns:svgjs="http://svgjs.dev/svgjs"><g width="100%" height="100%" transform="matrix(1,0,0,1,0,0)"><g fill="#594a42"><path d="m1022.158 860.925c-25.225-14.087-43.701-39.682-49.12-68.06 15.569 17.618 41.724 25.057 64.235 18.254-17.1-19.603-43.205-28.251-68.01-36.061-17.779-5.606-35.559-11.207-53.344-16.807 16.373-16.464 43.367-21.219 64.375-11.333 7.131-12.046-12.703-22.63-26.44-19.98-13.745 2.643-30.811 8.354-39.563-2.552-9.752-12.158 3.063-29.153 14.961-39.221-15.136-9.117-28.699-20.848-39.905-34.502.133 14.563-16.262 26.692-30.153 22.309-13.892-4.376-20.344-23.728-11.871-35.578-17.101-3.537-32.348-15.129-40.325-30.663 9.284-13.186 29.622-1.741 41.003 9.676 11.396 11.402 33.083 21.365 40.725 7.166-38.654-30.58-74.582-64.592-107.231-101.513-12.647-14.297-44.479 18.688-51.085.783 1.943-9.731 11.801-17.213 21.693-16.479-2.629-19.911 1.077-40.612 10.432-58.377-10.424 15.535-20.848 31.083-31.271 46.632-5.391 8.033-17.346 16.464-22.939 8.564 20.82-25.036 34.887-55.637 40.333-87.74-5.362 2.301-11.654 2.35-17.044.14 3.068-17.932 15.961-33.837 32.857-40.577-6.83 9.592-9.508 22.022-7.256 33.579 13.486-13.311 23.65-29.95 29.349-48.016-7.978 2.202-17.212-3.67-18.597-11.836 23.134 7.278 47.994-21.861 37.18-43.569-4.32 13.402-15.332 24.455-28.721 28.811 6.02-42.031 28.063-81.56 60.649-108.769-8.46 18.317-15.835 37.13-22.071 56.307 30.041-25.763 50.483-62.487 56.538-101.604-11.242 12.333-22.498 24.651-33.739 36.984 1.475-8.187 1.93-16.562 1.363-24.861-8.396 5.09-16.772 10.172-25.162 15.262 3-9.207 3.979-19.072 2.853-28.685 11.382.377 22.868-3.188 32.026-9.949-11.318-7.614-24.742-12.074-38.367-12.731.336 10.039-6.09 19.96-15.381 23.777 1.469-26.735 4.67-53.378 9.564-79.707-8.593 16.471-28.182 26.42-46.548 23.63-19.023-2.873-33.433 16.087-43.374 32.559-40.088 66.493-83.034 131.26-128.676 194.062-10.655 14.674-26.021 31.006-43.59 26.539-12.801-16.521-27.686-31.433-44.185-44.269 19.995 6.167 39.983 12.347 59.971 18.527-16.884-31.95-66.368-39.913-92.41-14.856-2.782-16.318 13.032-32.971 29.461-31.048 1.405-12.465-18.743-13.06-29.188-6.096-10.438 6.956-25.413 15.758-33.523 6.173-12.06-14.283-24.141-28.559-36.208-42.842-8.711-10.305-23.218-21.47-33.97-13.318-.273-6.558-.553-13.108-.846-19.659-11.025-1.489-19.981-9.333-28.209-16.835-32.551-29.657-65.103-59.327-97.653-88.991.133 16.485-4.391 32.984-12.92 47.093-7.662-10.158-15.317-20.303-22.98-30.461-20.505 12.242-10.452 43.724 2.699 63.648 41.094 62.319 90.326 118.977 143.327 171.529 43.458 43.094 89.474 83.496 135.448 123.863-98.817 125.703-197.631 251.412-296.445 377.121-16.115 20.499-32.586 41.689-39.703 66.773-7.131 25.063-2.678 55.287 17.597 71.66 3.251-4.236 6.502-8.48 9.753-12.717 21.575 20.777 9.99 62.55 33.223 81.447 13.835 11.263 35.089 8.732 49.994-1.063 14.912-9.809 24.958-25.302 34.55-40.347-3.384 23.1-19.058 44.031-40.269 53.791 6.257 9.256 20.47 1.041 27.867-7.341 121.095-137.44 235.073-281.152 341.343-430.352 8.131-11.402 19.064-24.183 32.949-22.435-107.158 159.12-226.47 310.061-356.542 451.08 19.513-1.195 34.579-16.968 47.415-31.727 112.643-129.519 218.077-265.303 315.665-406.504 84.607 90.096 169.215 180.198 253.822 270.287 21.883 23.309 56.566 48.177 82.154 29.035-10.27-8.026-3.985-26.231 7.928-31.503 11.913-5.278 25.686-1.873 38.242 1.608-12.71-15.885-25.406-31.762-38.116-47.632 7.494 3.382 17.484-1.519 19.406-9.503zm-248.599-697.808c6.207-.447 13.122 4.95 11.682 11.012l-2.098-.888c-2.719 6.173-7.383 11.487-13.164 14.982-2.846-6.369-7.215-12.06-12.641-16.464 4.782-3.999 10.005-8.194 16.221-8.642zm-509.769 41.885c-7.46 1.636-15.772-2.321-19.219-9.138 4.866-6.138 15.863-5.6 20.093.993l.755-.573c.671 2.957.062 6.201-1.629 8.718zm46.596 22.169-1.09-1.545c-7.606 2.216-16.129 1.119-22.932-2.943 8.445-8.382 23.155-9.396 32.684-2.272-2.887 2.258-5.775 4.502-8.662 6.76zm49.785 56.901c-2.342 1.916-5.684 2.524-8.536 1.538l-.406.748c-2.909-1.824-5.81-3.663-8.718-5.495 2.964-3.425 6.998-6.522 11.528-6.25 4.524.28 8.571 5.642 6.132 9.459zm38.941 38.697-.678-.217c-1.188 4.097-6.823 6.096-10.319 3.67.406-9.662.825-19.324 1.23-28.993 6.376-1.321 13.417 2.538 15.745 8.613 2.32 6.077-.343 13.648-5.978 16.927zm22.791 1.105c-4.936-.888-2.203-11.06 1.433-7.606l.301-.741c2.671 2.229 1.608 7.368-1.734 8.347zm-237.212 669.213-.608-.153c-.58 3.586-7.04.733-6.131-2.783.923-3.523 5.062-4.936 8.606-5.761 2.698 2.383 1.566 7.628-1.867 8.697zm163.063-287.031c-2.909-3.251-1.615-9.215 2.377-10.983l-1.042-.119c-.014-4.558 8.55-2.32 8.124 2.21-.426 4.543-5.257 7.123-9.459 8.892zm139.943-316.402c1.042-4.698 7.089-6.789 11.689-5.355 4.6 1.426 8.019 5.223 11.186 8.851l.853.245c-4.313 2.901-8.963 5.914-14.157 5.9-5.201 0-10.675-4.566-9.571-9.641zm21.883 392.305c-2.524 2.566-7.411 4.866-9.033 1.65 5.376-3.517 9.865-8.396 12.906-14.06 3.46-6.439 5.16-13.94 10.019-19.4 4.845-5.46 14.884-7.411 18.897-1.301-10.928 11.04-21.855 22.079-32.789 33.111zm90.983-127.338c.084 4.712-1.804 11.27-6.438 10.445-5.271-4.355 1.356-14.801 7.543-11.886zm15.364-302.118c-1.524 1.244-3.607 2.37-5.354 1.475-1.741-.895-.881-4.481.93-3.719l.859-1.161c.748-9.229 6.096-17.967 13.976-22.826 1.278 9.738-2.805 20.015-10.411 26.231zm109.475 89.606-.455-.007c-.098 7.291-5.124 14.275-12.004 16.694-2.803-7.208-1.041-15.981 4.321-21.554 3.965-.929 10.306 1.413 8.138 4.867zm-64.151-57.635-1.077-1.014c-3.055 2.517-8.613-.364-8.305-4.313 2.824-4.846 12.102.418 9.382 5.327zm5.936-22.303.118 1.125c-7.613-6.438-5.055-20.952 4.307-24.392 7.669 5.978 4.915 20.52-4.425 23.267zm39.612-170.131-.518-.979c3.468.51 6.697 2.44 8.816 5.243-2.832 4.188-5.678 8.383-8.509 12.563-5.92-3.383-5.802-13.583.211-16.827zm90.808 394.934c-9.431-2.601-20.372 3.461-23.176 12.829-6.578-12.374 2.447-32.495-9.963-39.004-5.739-3.006-12.724-.531-19.184-1.175-6.438-.643-12.871-8.899-7.83-12.961 12.878 3.852 24.26-8.278 34.551-16.94 9.039 8.571 1.74 30.552 14.129 31.943 13.646 1.538 26.525 8.948 34.719 19.967-6.222 5.473-15.269 7.551-23.246 5.341zm35.789 204.109c-2.607-.524-4.355-2.901-5.837-5.104 2.992-2.286 7.613-2.104 10.416.419l-.342.063c1.439 2.23-1.629 5.146-4.237 4.622zm57.58-83.825c-9.327 3.09-20.491-.832-25.833-9.061 10.368-.817 20.513-4.307 29.188-10.032-4.823-3.762-9.641-7.509-14.45-11.263 8.997-4.523 21.197-.986 26.377 7.648.637 9.795-5.971 19.618-15.282 22.708zm79.958 239.98-1.237-1.16c-2.824-2.923-5.663-5.852-8.487-8.774.014-3.439 4.678-5.257 7.781-3.782 3.104 1.476 4.762 4.88 5.88 8.131-1.315 1.86-2.623 3.726-3.937 5.585z" fill="#c40000" fill-opacity="1" data-original-color="#594a42ff" stroke="none" stroke-opacity="1"/><path d="m415.918 260.428c-1.475-25.826-23.651-48.882-49.393-51.365 3.657 4.74 7.628 9.229 11.655 13.661 11.99 13.151 24.581 25.735 37.738 37.704z" fill="#c40000" fill-opacity="1" data-original-color="#594a42ff" stroke="none" stroke-opacity="1"/><path d="m926.777 713.158c3.209 8.04 15.85 10.326 21.148 3.475 5.293-6.844-1.174-18.995-9.752-17.827l.635-4.586c-8.598.908-15.226 10.899-12.031 18.938z" fill="#c40000" fill-opacity="1" data-original-color="#594a42ff" stroke="none" stroke-opacity="1"/><path d="m1051.668 829.744c-5.396-1.769-11.199.454-16.436 2.656-1.706 3.433-.294 8.082 3.02 10.005l.707 1.328c3.768-2.552 6.998 3.769 8.004 8.215 1.008 4.453 8.139 8.383 8.774 3.873-3.656-3.209-3.544-9.738.224-12.814 4.397-3.587 1.098-11.494-4.293-13.263z" fill="#c40000" fill-opacity="1" data-original-color="#594a42ff" stroke="none" stroke-opacity="1"/><path d="m891.045 154.714c5.027-4.265 5.979-12.514 2.07-17.799-6.789 5.551-13.563 11.116-20.345 16.681l.378.266c4.586 4.718 12.899 5.103 17.897.852z" fill="#c40000" fill-opacity="1" data-original-color="#594a42ff" stroke="none" stroke-opacity="1"/><path d="m779.305 415.92.93.259c8.551-4.719 12.137-16.674 7.635-25.322-7.565 5.572-11.145 16.031-8.565 25.063z" fill="#c40000" fill-opacity="1" data-original-color="#594a42ff" stroke="none" stroke-opacity="1"/><path d="m1025.738 946.833c-4.949 1.084-6.068 9.222-1.588 11.592l-.02-.057c2.963 2.992 5.936 5.985 8.906 8.984 7.258-4.719-.14-15.653-7.298-20.519z" fill="#c40000" fill-opacity="1" data-original-color="#594a42ff" stroke="none" stroke-opacity="1"/><path d="m803.452 356.726c-2.565 3.922-.573 9.116 1.462 13.339 4.223-1.042 6.97-6.054 5.578-10.172l1.51-.063c2.357-4.056-5.977-7.027-8.55-3.104z" fill="#c40000" fill-opacity="1" data-original-color="#594a42ff" stroke="none" stroke-opacity="1"/><path d="m836.256 148.736c2.963.65 6.187.063 8.738-1.601-.531-3.461-2.461-6.684-5.264-8.788-3.594.636-6.915 2.649-9.152 5.53 1.44 1.999 2.873 4.013 4.307 6.012z" fill="#c40000" fill-opacity="1" data-original-color="#594a42ff" stroke="none" stroke-opacity="1"/><path d="m435.886 268.244-.203-.398c5.104-1.964 7.11-9.319 3.712-13.619-3.439.539-6.648 2.468-8.746 5.25.524 3.454 2.447 6.67 5.237 8.767z" fill="#c40000" fill-opacity="1" data-original-color="#594a42ff" stroke="none" stroke-opacity="1"/><path d="m817.658 127.448c-1.881 4.006-3.754 7.998-5.635 11.99l1.58.923c6.006.049 9.005-9.508 4.055-12.913z" fill="#c40000" fill-opacity="1" data-original-color="#594a42ff" stroke="none" stroke-opacity="1"/></g></g></svg>