<svg id="Layer_1" enable-background="new 0 0 40 40" height="512" viewBox="0 0 40 40" width="512" xmlns="http://www.w3.org/2000/svg"><g id="_x37_7"><g><g><g><g><g><g><g><path d="m29.6722126 32.3144875-3.4900513 2.0799561c-2.0899658 1.2301025-4.5899658 1.8099365-7.3200073 1.5400391-.3699951-.0400391-.7199707-.0899658-1.0899658-.1500244-2.1600342-.4000244-4.2200317-1.3100586-6.039978-2.6199951-1.1600342-.8299561-2.2300415-1.8199482-3.1600342-2.9400654-1.6699829-1.9799805-2.9299927-4.3399658-3.6300049-6.9199219-.25-.9699707-.4299927-1.9599609-.5100098-2.9699707-.0199585-.2399902-.039978-.4699707-.0499878-.7000732-.0672717-1.8975735.1633987-3.7484579.8181448-5.5718756.099144-.2761087.3125234-.4959888.5800166-.6164579l1.0918288-.4917202-1-.4399414c1.0400391-2.0400391 2.5800171-3.6999512 4.4700317-4.8199463l3.4799805-2.0699463c-8.6573391 5.1069317-7.6606617 19.0546474 1.4000244 25.4599609 1.8200073 1.2999287 3.8800049 2.2199726 6.039978 2.619875.3699951.0700684.7200317.1201172 1.0900269.1601563 2.709961.279907 5.2299805-.3100588 7.3200074-1.550049z" fill="#f3a250"/></g><g><path d="m35.6176605 20.384409c-.3286476-8.2284785-6.8059215-15.5310336-14.4782944-16.3173085-7.6589393-.7737584-13.6109786 5.2741356-13.2827548 13.4895191.3287258 8.2284756 6.8190136 15.5305309 14.4908867 16.303793 7.6593589.7867737 13.5988864-5.2476063 13.2701625-13.4760036z" fill="#ffd475"/><path d="m19.3757687 4.7896028c-6.2568092.240025-11.0275097 5.5160975-10.73909 12.7355824.3415337 8.5411448 7.5991154 15.9174608 15.4960213 15.6145205 6.1769676-.2369614 10.9960995-5.426075 10.704565-12.7240868-.31287-7.8401175-6.4935131-14.8257942-13.7773819-15.5723839-.5641517-.0571837-1.1312351-.074842-1.6841144-.0536322z" fill="#ffb961"/><g><g><g><path d="m9.4074068 16.6236725c-.24897 0-.2720442-.3695812-.0234375-.3984375l.9072266-.1074219.1035156-.9033194c.0117188-.1103516.1162109-.1865234.2207031-.1757813.1103516.0117188.1884766.1113281.1757813.2207031l-.1210938 1.0605459c-.0097656.0927734-.0830078.1650391-.1748047.1757813l-1.0644531.1259766c-.0078125.0009766-.015625.0019532-.0234375.0019532z" fill="#dd8536"/></g><g><path d="m9.7140474 15.7447672c-.0078125 0-.0146484-.0009766-.0224609-.0019531-.1103516-.0117188-.1884766-.1113281-.1757813-.2207031l.1210709-1.0605469c.0097885-.0927734.0830307-.1650391.1748276-.1757813l1.0644531-.125c.2582312-.0348959.3128223.3656149.046875.3964844l-.9072266.1064453-.1035156.9033203c-.0107422.1025391-.0976562.1777344-.1982422.1777344z" fill="#dd8536"/></g></g><g><g><path d="m31.1476421 14.2984781-.6074219-.8779297c-.0537109-.0771484-.046875-.1796875.015625-.2480469l.71875-.7949219c.175621-.1964188.474699.0710344.296875.2675781l-.6123047.6777344.5166016.7470703c.0634766.0908203.0410156.2158203-.0498047.2783203-.0931987.0647203-.2174778.0391198-.2783203-.0498046z" fill="#dd8536"/></g><g><path d="m31.5109234 14.9137125.6113262-.6777344-.5165997-.7470703c-.1523438-.2179689.1791096-.446126.328125-.2285156l.60742.8779297c.0527344.0771484.046875.1796875-.015625.2480469l-.7177715.7949219c-.1753254.1972408-.4746304-.0711127-.296875-.2675782z" fill="#dd8536"/></g></g><g><g><path d="m27.6564312 9.8131266-.8730469-.6152344c-.0761719-.0527344-.1044922-.1513672-.0703125-.2382813l.4003906-.9941411c.0410156-.1015625.1572266-.1503906.2607422-.1103516.1015625.0410156.1513672.1582036.1103516.2607427l-.3408203.8466797.7431393.5244141c.2171211.1533594-.0168057.4804659-.230444.3261719z" fill="#dd8536"/></g><g><path d="m28.2091656 10.265275.3408203-.8466797-.7431641-.5244141c-.2158489-.1525021.0143032-.4819031.2304688-.3261719l.8730469.6152344c.0761719.0527344.1044922.1513672.0703125.2382813l-.4003906.9941406c-.0988274.2439785-.4698277.0964442-.3710938-.1503906z" fill="#dd8536"/></g></g><g><g><path d="m22.5353374 7.2838292-1.0253906-.2949219c-.0888672-.0253906-.1484375-.109375-.1445313-.2021484l.0517578-1.0703125c.0068359-.1103516.1015625-.1826172.2099609-.1904297.1103516.0058594.1953125.0996094.1904297.2099609l-.0449218.9121094.8740234.2509766c.1054688.0302734.1669922.1416016.1367188.2480469-.0287742.0984935-.1313476.1674294-.2480469.1367187z" fill="#dd8536"/></g><g><path d="m23.4064312 7.7398839c-.0029297 0-.0068359 0-.0097656 0-.1103516-.0058594-.1953125-.0996094-.1904297-.2099609l.0449219-.9121094-.8740235-.2509766c-.2511177-.0720797-.1474552-.4559903.1113281-.3847656l1.0253906.2949219c.0888672.0253906.1484375.109375.1445313.2021484l-.0517578 1.0703125c-.0058594.1074219-.09375.1904297-.2001953.1904297z" fill="#dd8536"/></g></g><g><g><path d="m16.130064 7.9742589-.6787119-.8291016c-.1668854-.2039719.1394262-.4606667.3085938-.2539063l.5791025.7070313.8164063-.3984375c.2403545-.1143436.4121685.2423515.1757813.359375l-.9589844.4677739c-.0884782.0427132-.1877862.0156174-.2421876-.0527348z" fill="#dd8536"/></g><g><path d="m17.9943218 7.2926183-.578125-.7080078-.8164063.3994141c-.2370625.1162066-.4143028-.2424531-.1757813-.359375l.9589844-.46875c.0849609-.0419922.1845703-.0185547.2431641.0527344l.6787109.8300781c.1656476.2053103-.1395892.4582228-.3105468.2539062z" fill="#dd8536"/></g></g><g><g><path d="m12.1036959 11.577775-1.0126953-.3525391c-.2532005-.0875559-.1141472-.468545.1308594-.3769531l.8632813.2998047.4873047-.7666016c.0585938-.0927734.1835938-.1181641.2763672-.0615234.0927734.0595703.1210938.1826172.0615234.2763672l-.5722656.9003906c-.0509483.0783825-.1475574.1126242-.2343751.0810547z" fill="#dd8536"/></g><g><path d="m11.6486177 10.2740641.5722656-.9003906c.0498047-.078125.1445313-.1132813.234375-.0810547l1.0126953.3515625c.2517309.0870466.1158276.4653873-.1308594.3769531l-.8632813-.2988281-.4873047.7666016c-.1427096.2232131-.4796684.0082826-.3378905-.2148438z" fill="#dd8536"/></g></g><g><g><path d="m10.6886568 23.2389069.7617188-.5048828-.3154297-.8525391c-.0380859-.1035156.0146484-.21875.1181641-.2568359.0996094-.0400391.2197266.0136719.2568359.1181641l.3701172 1.0009766c.0322266.0869141 0 .1845703-.0771484.2363281l-.8935547.5927734c-.2196131.1443176-.4407521-.1865044-.2207032-.3339844z" fill="#dd8536"/></g><g><path d="m10.4894381 22.5523834-.3701172-1.0009766c-.0322266-.0869141 0-.1845703.0771484-.2363281l.8935547-.5927734c.0917969-.0605469.2148438-.0371094.2773438.0566406.0605469.0917969.0351563.2158203-.0566406.2773438l-.7617188.5048828.3154297.8525391c.0380859.1035156-.0146484.21875-.1181641.2568359-.097971.0383377-.2182188-.0113259-.2568359-.1181641z" fill="#dd8536"/></g></g><g><g><path d="m14.8156099 28.8404694.4248047-.8095703-.6855469-.5957031c-.1999331-.1743603.0607462-.4749966.2617188-.3027344l.8056641.7001953c.0703125.0615234.0888672.1621094.0458984.2441406l-.4990234.9492188c-.1201077.2335433-.4772339.0478858-.3535157-.1855469z" fill="#dd8536"/></g><g><path d="m14.4415865 28.3824615c-.1323071 0-.1164474-.0585747-.9365234-.7490234-.0703125-.0615234-.0888672-.1621094-.0458984-.2441406l.4990234-.9482422c.1181936-.2340679.4782486-.0497971.3535156.1855469l-.4248276.8085938.6855698.5957031c.1417761.1236419.0512428.3515624-.1308594.3515624z" fill="#dd8536"/></g></g><g><g><path d="m20.9445171 32.0387115c-.109375 0-.1992188-.0888672-.2001953-.1982422l-.0068359-.9130859-.8867188-.2021484c-.2477226-.0562992-.1841297-.4393826.0898438-.390625l1.0400391.2373047c.0898438.0205078.1542969.1005859.1552734.1933594l.0087891 1.0712891c.0009766.1103516-.0878906.2011719-.1982422.2021484-.0009766-.0000001-.0009766-.0000001-.0019532-.0000001z" fill="#dd8536"/></g><g><path d="m20.0607281 31.6324615-1.0410156-.2363281c-.0908203-.0205078-.1552734-.1005859-.15625-.1943359l-.0078125-1.0722656c-.0009766-.1103516.0878906-.2001953.1992188-.2011719h.0009766c.109375 0 .1992188.0888672.2001953.1992188l.0068359.9130859.8857422.2011719c.1083984.0244141.1757813.1318359.1513672.2392578-.0231668.1000347-.1204377.1751327-.2392579.1513671z" fill="#dd8536"/></g></g><g><g><path d="m27.5978374 31.5318756c-.1858482 0-.1804676-.1615639-.6738281-.8486328l-.8515625.3183594c-.2465992.094492-.3889656-.2812862-.140625-.375l1-.3740234c.0869141-.0341797.1835938-.0009766.2363281.0761719l.5957031.8916016c.0615234.0917969.0371094.2158203-.0546875.2773438-.0341796.0234373-.0732421.0341795-.1113281.0341795z" fill="#dd8536"/></g><g><path d="m25.5099468 31.9420319-.5957031-.890625c-.1471081-.219492.1855812-.4446926.3320313-.2226563l.5078125.7587891.8505859-.3183594c.2487698-.0915279.387619.2817955.140625.375l-.9990234.3740234c-.0855084.0320664-.1835137.0023766-.2363282-.0761718z" fill="#dd8536"/></g></g><g><g><path d="m30.8576031 27.2232819.6123047-.8740234c.0546875-.0751953.1503906-.1044922.2382813-.0703125l.9951153.3974609c.2450066.0980034.098053.4673424-.1484375.3710938l-.8476543-.3388672-.5214844.7451172c-.1548082.21673-.4792825-.0141965-.3281251-.2304688z" fill="#dd8536"/></g><g><path d="m31.2531109 28.5475006-.9951172-.3974609c-.2446556-.0978603-.09865-.469471.1484375-.3710938l.8476563.3388672.5224609-.7451172c.1546211-.2155323.4795856.0137653.3281231.2304688l-.6132793.8740234c-.0521794.0730515-.1481972.1063461-.2382813.0703125z" fill="#dd8536"/></g></g><g><g><path d="m32.840023 20.8844147-.1103516-1.0625c-.0097656-.0917969.0458984-.1787109.1337891-.2089844l1.0126953-.3515625c.2450294-.0893078.3840332.2894096.1308594.3769531l-.8632813.2998047.0947266.9052734c.0259552.2642613-.3706131.3065911-.3984375.0410157z" fill="#dd8536"/></g><g><path d="m32.862484 21.5992584.8632813-.2998047-.09375-.9052734c-.0107422-.1103516.0693359-.2080078.1787109-.2197266.1074219.0019531.2089844.0703125.2197266.1787109l.109375 1.0625c.0087891.0927734-.0458984.1787109-.1337891.2089844l-1.0126953.3515625c-.2455712.0893002-.3836976-.2895221-.1308594-.3769531z" fill="#dd8536"/></g></g></g></g><g><path d="m31.9057617 20.006012c-.2444344-6.0314856-4.9933815-11.3824053-10.6007633-11.9614372-5.6199732-.5655165-9.9808455 3.8589544-9.7364101 9.89044.2444363 6.0314846 4.9933834 11.3824043 10.6132774 11.9479237 5.6073818.5790328 9.9678345-3.8584539 9.723896-9.8769265z" fill="#f3a250"/></g><g><path d="m27.610157 25.1555672c-1.3843746 1.2582703-4.2334652 1.4341526-5.9123573 1.4525242-.2997723.0010853-.5337658-.2011833-.5648632-.4894714-.0580215-.5547943-.1243973-1.1109257-.1990967-1.6678505-.0245399-.1941376-.1412182-.3567123-.3196239-.4368477-1.0724049-.464674-4.6864452-2.31777-5.1710024-5.6020451-.6008148-3.8416758 1.777545-5.8054371 4.6031713-5.6495161 1.7518101.0959635 4.5529976.9506121 6.3145103 3.7843981.6416111 1.0368443.7050095 1.8921547.5765038 2.5282211-.0245972.1252651.0351238.2527695.1404667.330843.0251122.0181293.0502663.0372028.0750237.0598812.0053329.000742.004776.0052795.0101089.0060196.4250355.3399582 1.1498032 1.0724697.6091061 1.7487793-.3622208.45224-.6509762.7683182-.8524704.9730434-.1579571.156374-.1988621.3864498-.1182308.5745831.0173874.0281315.0340576.0601177.0462437.0891304.282629.4242878 1.016428.8360748 1.2136707 1.336731.0910587.2199954-.2596264.7872886-.4511605.9615764z" fill="#dd8536"/></g><g><path d="m31.9057617 20.006012c-.2444344-6.0314856-4.9933815-11.3824053-10.6007633-11.9614372-3.2674465-.3302884-6.1186152 1.0288677-7.8627958 3.413209 1.7136106-1.4848509 4.0017099-2.2495642 6.5501051-1.9958658 8.4994774.8776608 13.5858135 11.8888702 8.7267323 18.4257317 2.0801067-1.772339 3.32592-4.5931169 3.1867217-7.8816377z" fill="#dd8536"/></g><g><path d="m21.2609978 33.7068558c-2.1634007-.3987045-4.2168636-1.322422-6.0372086-2.6195755l-3.4876642 2.0736198c1.8208447 1.3101654 3.8737297 2.2208748 6.0372095 2.6195755z" fill="#dd8536"/></g><g><path d="m12.0516186 28.1494446c-1.6773548-1.9796543-2.9610643-4.347496-3.6323185-6.9125252l-3.4796839 2.0688763c.6977782 2.5770435 1.9599991 4.9371967 3.6372719 6.9167747z" fill="#dd8536"/></g><g><path d="m8.2105141 13.5462618-3.4616394 2.0726232c-.3031459 1.2614079-.4207783 2.6069221-.3669119 4.0109367.0089774.2339878.0309672.4674778.0529571.7009678l3.4621382-2.0596104c-.1271792-1.3503932-.0531455-3.1316804.313456-4.7249173z" fill="#dd8536"/></g></g></g></g></g><g><g><path d="m27.8711224 24.7075825c-1.3315659 1.2102718-4.0719738 1.3794441-5.6868191 1.3971157-.2883377.0010433-.5134068-.1935101-.5433159-.4708004-.055809-.5336323-.1196537-1.0685482-.1915016-1.6042271-.0236053-.1867313-.1358318-.3431053-.3074322-.4201851-1.031496-.4469471-4.5076733-2.229353-4.9737453-5.3883438-1.0673761-6.8249226 7.2678852-6.9954901 10.5012074-1.7939701.617136.9972916.6781158 1.8199749.554512 2.431778-.0236588.1204872.033783.2431259.135107.318222.0241547.017437.0483494.0357838.0721626.0575981.0051289.0007114.0045948.0050755.0097237.0057888.408823.3269901 1.1059418 1.031559.5858707 1.6820679-.3484039.4349899-.6261444.7390099-.819952.9359264-.1519299.1504078-.1912766.3717079-.1137199.5526657.2950439.4773941.7282314 1.1365986.9349022 1.6611881.0875835.2116032.0272273.4675351-.1569996.6351758z" fill="#ffde9b"/></g><g opacity=".9"><path d="m28.032198 24.0744953c.0799561.2099609.0199585.4699707-.1600342.6298828-1.2761097 1.1613865-3.9222107 1.4001465-5.6900024 1.4001465-.289978 0-.5099487-.1900635-.539978-.4700928-.0599976-.5299072-.1199951-1.0699463-.1900024-1.5999756-.0200195-.1400146-.0900269-.2700195-.1900024-.3499756-.0769672-.0771236-.1365891-.0782623-.2799683-.1500244-2.2189579-.9868717-4.456459-2.8960876-4.8099976-5.3100586-.3398104-2.2060051.282486-4.1854267 2.2699585-5.0699463 0 .0100098-.0100098.0100098-.0100098.0200195-.1999512.2999268-.3499756.6300049-.4799805.9699707-1.2199707 3.2301025.4099731 7.6600342 4.9000244 7.6600342 2.2199707 0 3.75-1.0900879 4.5700073-2.5800781 0 .0100098.0099487.0100098.0099487.0100098s0 .0100098.0100098.0100098c.4100342.3200684 1.1000366 1.0300293.5800171 1.6800537-.3400269.4300537-.6199951.7399902-.8200073.9300537-.1500244.1499023-.1900024.3798828-.1099854.5599365.0199585.0200195.0299683.0499268.0499878.0799561.2700195.4100342.7000122 1.1000976.8900147 1.5800781z" fill="#ffd475"/></g><g opacity=".9"><path d="m25.7021809 25.7243977c-1.0891705.3028545-2.3898544.380127-3.5200195.380127-.289978 0-.5099487-.1900635-.539978-.4700928-.0599976-.5299072-.1199951-1.0699463-.1900024-1.5999756-.0200195-.1400146-.0900269-.2700195-.1900024-.3499756-.1590366-.1194592-4.5590801-1.8351746-5.0899658-5.460083-.3397884-2.205864.282423-4.1853981 2.2699585-5.0699463-.0038452.0059814-.0065918.0123291-.010376.0183105.4171143-.1876221.8638306-.3181152 1.3403931-.3682861-1.7671185.629425-2.9706097 2.3655214-2.5100098 5.1799316.4799805 3.1600342 3.9700317 4.9400635 5 5.3901367.1699829.079834.289978.2299805.3099976.4199219.0700073.5400391.1400146 1.0700684.2000122 1.6099854.0299683.2800293.2600098.4700928.539978.4700928.3500366-.0100098.7000122-.0100098 1.0499878-.0100098.0200195 0 .0300293 0 .0500488-.0100098.1323851 0 .8879183-.0798206 1.2899779-.1301269z" fill="#ffb961"/></g><g><path d="m25.6022663 19.2474518c-.5298252.2973957-1.3234901-.1087723-1.7794628-.9053326-.4605446-.7963314-.4291706-1.6894951.0848789-1.9869823.5038967-.2985191 1.3234272.1087685 1.804451.9065228.4763527.7984962.4194183 1.6897849-.1098671 1.9857921z" fill="#dd8536"/><path d="m25.1692886 19.3388252c.5855808-.9054985-.424284-2.6682377-1.5241966-2.7167416.0643845-.1114445.1484928-.2070255.2616405-.2677841.5037746-.2976189 1.3230801.1101704 1.8057957.9072552.6979657 1.1629372.1944256 2.143383-.5432396 2.0772705z" fill="#f3a250"/></g><g><path d="m22.0271606 20.3294697c-.672617.3702507-1.6515884-.1350784-2.2006149-1.1298733-.5547504-.9952888-.499733-2.1099682.1466808-2.4811001.6335201-.3718166 1.6542702.1356373 2.2411022 1.1324348.5817357.9971238.4846841 2.1086274-.1871681 2.4785386z" fill="#dd8536"/></g><g><path d="m22.0264549 20.3273563c-.1298809.0706959-.2775078.1141396-.4264355.1214104.5923519-.4142609.6554089-1.4668598.1090622-2.4237137-.4678497-.7958889-1.2115784-1.2798767-1.8119411-1.2504387.0261898-.0229225.0522919-.0367947.0783386-.0544224.6314373-.3731136 1.6543446.1339588 2.2377071 1.1293736.5840798.9958496.4864464 2.1124916-.1867313 2.4777908z" fill="#f3a250"/></g><path d="m24.3302307 21.2076263c-.2446709.1098785-.4897537.2196007-.7352715.3295536-.0822544.0360641-.1677132-.0322075-.1477909-.1196861.0945301-.4082222.1842785-.8170071.269146-1.2263584.0207443-.0994568.1553402-.1209583.2028275-.0306396.1577187.2992134.3130703.5980167.4660301.896801.0284843.05587.0030193.124113-.0549412.1503295z" fill="#f3a250"/><path d="m25.4549541 21.0209293c-.1519756-.0008125-.3039341-.0013638-.4558849-.0020466-.0894909-.0013885-.1694355-.0535297-.2045116-.1345253-.1046906-.2428226-.210928-.4857445-.3187027-.7288933-.0295219-.0665455.0532265-.1293545.1078377-.0790749.3083916.2751064.6148815.5506096.919569.8254814.0460796.041979.0143757.119917-.0483075.1190587z" fill="#f3a250"/><path d="m28.0268917 20.9226265c-.3484039.4349899-.6261444.7390099-.819952.9359264-.1519299.1504078-.1912766.3717079-.1137199.5526657-.3099346-.5693607-1.0367069-1.292881-.1645641-1.6814327 1.2469673-.5662632.503624-1.4952126.5026417-1.4950161.0051289.0007114.0045948.0050755.0097237.0057888.4088229.3269902 1.1059416 1.031559.5858706 1.6820679z" fill="#ffb961"/></g><g fill="#dd8536"><path d="m27.3821735 25.0644855c-.0249939.039917-.0905457.079834-.2099609.1199951l-.6100464-1.4500732z"/><path d="m26.2721882 25.5544758c-.0760498.0935059-.1570129.1082764-.2399902.0799561l-.3500366-1.5499268z"/><path d="m24.6722126 25.9344807c-.0965881.0689697-.1749573.0665283-.2600098.039917.0017986-.1026688.0318661-1.8182449.0299683-1.7099609.013876.1007327.2447567 1.7768745.2300415 1.6700439z"/></g></g><g fill="#fff"><path d="m22.9934196 9.207201c-.0518017-.1424294.0883255-.2791224.230238-.225399 1.7094479.6471367 1.8766422.6199512.1021595-.2298841-.1366425-.0654402-.135067-.26089.003149-.3221626 3.6425705-1.6147876 3.4735546-1.7312288-.172533-.4192467-.1424999.0512762-.2797832-.0889211-.2264061-.2304516.6638184-1.760139.5858631-1.8087511-.2326126-.0975394-.0651646.1362391-.26091.134141-.3226681-.0040202-.628252-1.4055085-1.2266655-2.6827545-1.3157196-2.6470304-.0856018.034339.370739 1.3713827.896347 2.8180771.0517464.1424294-.088316.2790914-.230217.225389-1.8170433-.6876678-1.7650986-.5621624-.0977478.2275839.1372261.0649977.1360798.2609406-.0024185.3224039-1.405405.6237001-2.683651 1.2212324-2.6490269 1.306776.0360184.0889912 1.3733807-.3660755 2.8211231-.8874588.1423359-.05126.2795925.0886393.2265644.2301311-.6734352 1.7968826-.5674858 1.791378.2273026.1005878.0644741-.1371622.2610588-.1357298.323082.0029039.6285706 1.404974 1.2315521 2.6853113 1.3171101 2.6509895.0890255-.035713-.3714695-1.3746937-.8977261-2.8216494z"/><path d="m17.5661392 17.442852c.0454369.9843483.2714348 1.736393-.1163025 1.7739048-.3836536.0371189-.7479362-.734972-.7933712-1.7193203-.045433-.9843159.3065853-1.6983404.690237-1.7354574.3877393-.0375137.1740037.696557.2194367 1.6808729z" opacity=".7"/><path d="m17.6323223 14.3973618c.183445.0619593.261694.3192263.1793613.5720377-.0823326.2528105-.2947063.4073887-.4781513.3454285-.1796761-.0606871-.2592754-.31388-.1769428-.5666914.0823326-.2528106.2960568-.4114619.4757328-.3507748z" opacity=".7"/></g></g><path d="m6.2547617 13.2340412-.3864398-.717927 1.0061984.4374781" fill="#dd8536"/></g></svg>