<?xml version="1.0" encoding="UTF-8"?><svg xmlns="http://www.w3.org/2000/svg" class="header" enable-background="new 0 0 598 100" fill="none" height="34px" preserveAspectRatio="xMidYMid meet" viewBox="0 0 598 100" width="200px"><g clip-path="url(#clip0_8108_39907)"><path d="M79.8628 0H20.1372C9.01773 0 0 9.01773 0 20.1372V79.8628C0 90.9862 9.01773 100 20.1372 100H79.8628C90.9862 100 100 90.9823 100 79.8628V20.1372C100 9.01376 90.9823 0 79.8628 0Z" fill="#E91401"/><path d="M62.5253 80.1126C62.4777 79.7874 62.446 79.4543 62.446 79.1172V59.789H59.4639V75.9725C59.4639 78.0862 60.5663 79.8152 62.5213 80.1126H62.5253Z" fill="white"/><path d="M17.2819 81.0524C17.1828 80.5528 17.1312 80.0373 17.1312 79.5059V21.3269C17.1312 20.7439 17.1986 20.2284 17.3176 19.6772C15.311 20.2641 13.8438 22.3698 13.8438 24.773V76.4127C13.8438 78.8 15.0969 80.5449 17.2819 81.0524Z" fill="white"/><path d="M62.4501 37.3716V22.3817C62.4501 22.0843 62.4739 21.7948 62.5135 21.5093C60.5228 21.7591 59.4719 23.8252 59.4719 25.9388V37.2288L62.454 37.3716H62.4501Z" fill="white"/><path d="M23.3295 81.0048V16.8814C23.3295 16.5126 23.3613 16.1518 23.4049 15.7949C21.1485 16.5285 19.7922 18.7413 19.7922 21.2753V78.907C19.7922 81.6433 21.4261 83.757 23.9601 84.2764C23.5556 83.2692 23.3335 82.1668 23.3335 81.0009L23.3295 81.0048Z" fill="white"/><path d="M64.8572 22.9369V37.4707L67.9067 37.6293V22.4769C67.9067 22.4769 67.9146 18.2852 67.9186 18.202C65.7415 18.5311 64.8572 20.6091 64.8572 22.9408V22.9369Z" fill="white"/><path d="M67.9067 80.1007V59.7494H64.8572V78.0545C64.8572 80.5488 66.031 82.5633 68.3746 82.7497C68.0772 81.9209 67.9067 81.0287 67.9067 80.0967V80.1007Z" fill="white"/><path d="M78.4313 85.7953C80.0849 85.716 81.5443 85.5415 82.0836 85.4463C84.57 85.0141 86.4338 82.8727 86.4338 80.3069V19.9032C86.4338 17.4049 84.5383 15.3785 82.2898 14.7995C82.2898 14.7995 80.6956 14.3237 78.4273 14.1928C76.3533 14.0699 74.9059 14.2325 74.9059 14.2325C72.3957 14.5299 70.4248 16.4294 70.4248 19.0863V40.3577L45.5765 39.3425V17.8015C45.5765 13.4274 41.5593 11.9364 41.5593 11.9364C40.5045 11.5041 38.7993 11.1631 36.3961 10.949C34.2984 10.7586 32.1094 10.9093 31.8119 10.941C28.7109 11.2979 26.2522 13.9311 26.2522 17.1868V81.8218C26.2562 85.0934 28.5681 87.4886 32.4107 87.4886C34.1794 87.4886 35.8529 87.4608 36.5429 87.437C37.1694 87.4132 39.5924 87.2863 40.5402 87.0444C40.564 87.0365 45.628 86.0055 45.628 80.8661L45.5765 73.4901V57.1281H70.4248V80.5528C70.4248 83.4635 72.8517 85.7913 75.6197 85.7913C75.6197 85.7913 77.1544 85.8587 78.4273 85.7953H78.4313Z" fill="white"/><path d="M353.868 16.4611H341.575V83.5785H353.868V16.4611Z" fill="white"/><path d="M309.553 32.8191C295.475 32.8191 284.173 43.427 284.173 58.7936C284.173 74.1602 295.376 84.7682 310.346 84.7682C318.872 84.7682 325.911 81.8931 330.372 78.0267V67.3196C325.316 71.2852 318.079 74.3585 311.635 74.3585C302.439 74.3585 297.01 69.5086 296.185 62.9575H334.338C337.114 46.7978 326.902 32.8191 309.553 32.8191ZM296.312 53.5392C297.494 47.8645 302.348 42.9313 309.751 42.9313C317.155 42.9313 321.902 47.4402 322.715 53.5392H296.312Z" fill="white"/><path d="M221.22 32.8191C207.34 32.8191 194.849 42.8322 194.849 58.7936C194.849 74.7551 207.34 84.7682 221.22 84.7682C235.099 84.7682 247.591 74.7551 247.591 58.7936C247.591 42.8322 235.099 32.8191 221.22 32.8191ZM221.22 73.962C212.991 73.962 207.241 67.5179 207.241 58.7936C207.241 50.0694 212.991 43.6253 221.22 43.6253C229.448 43.6253 235.198 50.0694 235.198 58.7936C235.198 67.5179 229.448 73.962 221.22 73.962Z" fill="white"/><path d="M174.624 43.3279H146.171V16.4611H133.581V83.5785H146.171V54.729H174.624V83.5785H187.215V16.4611H174.624V43.3279Z" fill="white"/><path d="M268.708 21.6163H256.613V34.0088H249.673V43.6253H256.613V71.88C256.613 80.5052 260.578 84.7682 269.203 84.7682C272.475 84.7682 277.333 83.7768 280.704 82.488V72.4749C278.423 73.3671 275.449 74.0611 273.07 74.0611C269.897 74.0611 268.708 73.0697 268.708 70.393V43.6253H280.704V34.0088H268.708V21.6163Z" fill="white"/><path d="M410.874 69.5999C406.214 69.5999 403.339 72.9706 403.339 77.1345C403.339 81.2983 406.214 84.5699 410.874 84.5699C415.533 84.5699 418.408 81.1992 418.408 77.1345C418.408 73.0697 415.533 69.5999 410.874 69.5999Z" fill="white"/><path d="M579.113 33.3148C572.499 33.3148 567.772 36.5825 564.861 40.3299C562.505 36.1383 558.207 33.3148 551.255 33.3148C545.112 33.3148 541.25 35.8449 538.863 39.1442V34.0088H526.668V83.5785H538.863V54.1341C538.863 47.69 542.035 43.6253 547.587 43.6253C552.742 43.6253 555.815 47.1943 555.815 53.1427V83.5785H568.01V54.1341C568.01 47.69 571.182 43.6253 576.734 43.6253C581.889 43.6253 584.962 47.1943 584.962 53.1427V83.5785H597.157V51.0608C597.157 39.858 590.514 33.3148 579.113 33.3148Z" fill="white"/><path d="M387.179 55.9186L382.322 53.0435C378.158 50.5651 376.175 49.078 376.175 46.5995C376.175 44.121 378.059 42.3365 381.826 42.3365C386.585 42.3365 391.74 44.2201 394.714 46.0046V35.8924C391.641 34.0088 386.783 32.8191 381.231 32.8191C370.028 32.8191 363.485 39.4614 363.485 47.0952C363.485 54.3324 367.451 57.8022 373.597 61.2721L378.753 64.1472C383.412 66.7248 384.701 68.1127 384.602 70.5912C384.503 73.268 382.024 74.9534 378.455 74.9534C373.002 74.9534 366.955 72.6732 362.593 68.8067V79.9103C365.864 82.5871 372.903 84.7682 378.951 84.7682C389.261 84.7682 397.292 79.3155 397.292 69.7981C397.292 63.1558 393.623 59.6859 387.179 55.9186Z" fill="white"/><path d="M493.358 32.8191C479.478 32.8191 466.987 42.8322 466.987 58.7936C466.987 74.7551 479.478 84.7682 493.358 84.7682C507.237 84.7682 519.729 74.7551 519.729 58.7936C519.729 42.8322 507.237 32.8191 493.358 32.8191ZM493.358 73.962C485.129 73.962 479.379 67.5179 479.379 58.7936C479.379 50.0694 485.129 43.6253 493.358 43.6253C501.586 43.6253 507.336 50.0694 507.336 58.7936C507.336 67.5179 501.586 73.962 493.358 73.962Z" fill="white"/><path d="M435.064 58.6945C435.064 50.2677 441.409 43.6253 449.935 43.5262C454.198 43.6253 458.262 45.1124 462.129 47.7892V36.1899C458.262 34.0088 453.603 32.8191 448.844 32.72C433.577 32.8191 422.473 43.7244 422.473 58.6945C422.473 73.6646 433.577 84.7682 448.745 84.6691C453.504 84.7682 458.163 83.4794 462.327 81.0009V69.5999C458.857 71.9792 454.693 73.962 449.935 73.8628C441.409 73.962 435.064 67.3196 435.064 58.6945Z" fill="white"/></g><defs><clipPath id="clip0_8108_39907"><rect fill="white" height="100" width="597.157"/></clipPath></defs></svg>