<svg height="511pt" viewBox="0 -5 511.99955 511" width="511pt" xmlns="http://www.w3.org/2000/svg"><path d="m511.996094 252.039062c-.269532 59.691407-21.234375 114.210938-56.347656 157.101563-40.835938 49.882813-121.804688 20.621094-121.804688-43.84375v-45.949219c0-116.007812-94.042969-210.050781-210.050781-210.050781-28.585938 0-41.144531-36.074219-18.730469-53.8125 43.148438-34.136719 99.0625-55.40625 158.410156-54.976563 137.585938.992188 249.148438 113.941407 248.523438 251.53125zm0 0" fill="#0680ae"/><path d="m358.863281 332.554688 82.484375 25.308593c8.585938 2.632813 14.445313 10.558594 14.445313 19.539063v31.558594c-45.910157 56.332031-115.835938 92.296874-194.171875 92.296874-138.671875 0-250.378906-111.703124-250.378906-250.378906 0-78.335937 35.957031-148.261718 92.289062-194.171875h96.558594c10.84375 0 21.242187 4.304688 28.90625 11.972657l22.984375 22.988281c3.992187 3.988281 10.464843 3.988281 14.453125 0l22.988281-22.988281c7.664063-7.664063 18.0625-11.972657 28.902344-11.972657h117.027343c11.289063 0 20.441407 9.148438 20.441407 20.4375v191.019531c0 8.976563-5.859375 16.90625-14.445313 19.539063l-82.484375 25.308594c-9.628906 2.957031-9.628906 16.585937 0 19.542969zm0 0" fill="#f3d373"/><path d="m439.363281 427.226562c-45.359375 45.707032-108.257812 74.03125-177.742187 74.03125-138.675782 0-250.378906-111.703124-250.378906-250.378906 0-69.484375 28.289062-132.351562 74-177.714844-25.816407 39.980469-40.785157 87.613282-40.785157 138.746094 0 141.863282 114.269531 256.132813 256.132813 256.132813 51.132812 0 98.792968-15 138.773437-40.816407zm0 0" fill="#f1ca50"/><path d="m391.804688 201.132812c1.996093 1.996094 1.996093 5.230469 0 7.226563l-14.453126 14.449219c-1.992187 1.996094-5.230468 1.996094-7.226562 0l-25.289062-25.289063-25.292969 25.289063c-1.996094 1.996094-5.230469 1.996094-7.226563 0l-14.453125-14.449219c-1.996093-1.996094-1.996093-5.234375 0-7.226563l25.292969-25.292968-25.292969-25.292969c-1.996093-1.996094-1.996093-5.230469 0-7.226563l14.453125-14.453124c1.996094-1.996094 5.230469-1.996094 7.226563 0l25.292969 25.292968 25.289062-25.292968c1.996094-1.996094 5.230469-1.996094 7.226562 0l14.453126 14.453124c1.996093 1.996094 1.996093 5.230469 0 7.226563l-25.292969 25.292969zm0 0" fill="#fc5426"/><path d="m340.039062 182.210938-34.160156 34.160156-8.015625-8.011719c-1.996093-1.996094-1.996093-5.234375 0-7.226563l25.292969-25.292968-25.292969-25.292969c-1.996093-1.996094-1.996093-5.230469 0-7.226563l8.015625-8.015624 34.160156 34.164062c3.519532 3.519531 3.519532 9.222656 0 12.742188zm0 0" fill="#ee4424"/><path d="m246.871094 302.664062c5.644531 10.410157 8.617187 22.140626 8.617187 34.058594v7.425782c0 1.128906-.914062 2.046874-2.042969 2.046874h-16.351562c-1.128906 0-2.042969-.917968-2.042969-2.046874v-7.425782c0-8.363281-2.046875-16.59375-5.933593-23.921875-.507813-.957031-.140626-2.148437.796874-2.691406l14.152344-8.214844c.984375-.570312 2.265625-.234375 2.804688.769531zm6.574218 138.695313h-16.351562c-1.128906 0-2.042969.917969-2.042969 2.046875v44.566406c0 1.128906.914063 2.042969 2.042969 2.042969h16.351562c1.128907 0 2.042969-.914063 2.042969-2.042969v-44.566406c0-1.128906-.914062-2.046875-2.042969-2.046875zm-24.71875-160.429687c-11.585937-9.300782-25.90625-14.792969-40.742187-15.628907-1.160156-.066406-2.15625.820313-2.1875 1.984375l-.425781 16.339844c-.027344 1.089844.796875 2.035156 1.882812 2.105469 10.304688.664062 20.242188 4.480469 28.351563 10.878906.855469.671875 2.097656.523437 2.804687-.304687l10.613282-12.4375c.757812-.882813.613281-2.210938-.296876-2.9375zm24.71875 86.101562h-16.351562c-1.128906 0-2.042969.917969-2.042969 2.042969v49.40625c0 1.125.914063 2.042969 2.042969 2.042969h16.351562c1.128907 0 2.042969-.917969 2.042969-2.042969v-49.40625c0-1.125-.914062-2.042969-2.042969-2.042969zm-59.777343-183.601562h37.585937c1.128906 0 2.042969-.917969 2.042969-2.042969v-16.351563c0-1.128906-.914063-2.046875-2.042969-2.046875h-37.585937c-1.128907 0-2.046875.917969-2.046875 2.046875v16.351563c0 1.125.917968 2.042969 2.046875 2.042969zm100.101562-20.441407h-37.589843c-1.128907 0-2.042969.917969-2.042969 2.046875v16.351563c0 1.125.914062 2.042969 2.042969 2.042969h37.589843c1.128907 0 2.042969-.917969 2.042969-2.042969v-16.351563c0-1.128906-.914062-2.046875-2.042969-2.046875zm-193.492187 102.152344c-9.996094-.453125-19.269532-4.453125-26.464844-11.414063-.777344-.753906-2.015625-.742187-2.800781 0l-11.902344 11.230469c-.832031.785157-.875 2.113281-.0625 2.917969 11.429687 11.304688 27.035156 17.75 43.148437 17.75h.039063l-.035156-18.449219c0-1.082031-.84375-1.984375-1.921875-2.035156zm68.464844-102.152344h-37.589844c-1.128906 0-2.042969.917969-2.042969 2.046875v16.351563c0 1.125.914063 2.042969 2.042969 2.042969h37.589844c1.128906 0 2.042968-.917969 2.042968-2.042969v-16.351563c0-1.128906-.914062-2.046875-2.042968-2.046875zm-105.589844 73.476563c-1.21875-3.917969-1.835938-7.996094-1.835938-12.15625 0-5.824219 1.1875-11.417969 3.53125-16.648438.441406-.988281.019532-2.152344-.949218-2.636718l-14.613282-7.382813c-1.042968-.523437-2.296875-.0625-2.789062.996094-3.730469 8.0625-5.617188 16.6875-5.617188 25.671875 0 6.492187 1.007813 12.871094 2.996094 18.984375.355469 1.085937 1.558594 1.644531 2.632812 1.253906l15.382813-5.589844c1.011719-.367187 1.582031-1.464843 1.261719-2.492187zm43.074218-73.476563h-4.035156c-13.667968 0-26.980468 4.59375-37.714844 12.972657-.902343.703124-1.015624 2.027343-.285156 2.90625l10.507813 12.550781c.695312.828125 1.921875.980469 2.78125.324219 7.078125-5.375 15.777343-8.3125 24.710937-8.3125h.003906 4.03125c1.128907 0 2.042969-.917969 2.042969-2.042969v-16.351563c0-1.128906-.914062-2.046875-2.042969-2.046875zm56.476563 102.199219h-37.585937c-1.128907 0-2.042969.914062-2.042969 2.042969v16.351562c0 1.128907.914062 2.042969 2.042969 2.042969h37.585937c1.128906 0 2.046875-.914062 2.046875-2.042969v-16.351562c0-1.128907-.917969-2.042969-2.046875-2.042969zm0 0" fill="#fc9368"/><path d="m102.195312 230.3125c0-.015625 0-.027344 0-.042969 0-11.757812 11.4375-21.289062 25.550782-21.289062 14.109375 0 25.546875 9.53125 25.546875 21.289062v.042969c-.003907 2.34375-1.972657 4.214844-4.316407 4.214844h-42.464843c-2.339844 0-4.308594-1.871094-4.316407-4.214844zm-21.847656 83.875c0-.011719 0-.023438 0-.035156 0-9.457032-9.195312-17.121094-20.542968-17.121094-11.347657 0-20.546876 7.664062-20.546876 17.121094v.035156c.003907 1.886719 1.589844 3.390625 3.472657 3.390625h34.144531c1.886719-.003906 3.46875-1.507813 3.472656-3.390625zm77.515625 50.910156c-1.882812-2.160156-7.257812-2.160156-9.140625 0 0 0-7.167968 8.621094-15.132812 18.535156-10.757813-24.527343-26.824219-58.210937-26.824219-58.210937-1.882813-3.765625-7.257813-3.765625-9.140625 0 0 0-28.058594 58.824219-34.839844 77.609375 4.074219 5.320312 8.355469 10.476562 12.835938 15.445312h108.332031c5.644531 0 10.21875-2.621093 10.21875-5.859374 0-3.855469-36.308594-47.519532-36.308594-47.519532zm0 0" fill="#d98800"/><path d="m51.097656 279.664062v.042969c-.007812 2.34375-1.972656 4.214844-4.320312 4.214844h-42.457032c-2.347656 0-4.3124995-1.871094-4.320312-4.214844v-.042969c0-11.761718 11.4375-21.292968 25.550781-21.292968 14.109375 0 25.546875 9.53125 25.546875 21.292968zm271.824219-29.890624c-13.835937 0-25.988281 7.105468-32.910156 17.816406-2.175781 3.371094.328125 7.816406 4.339843 7.816406h57.144532c4.011718 0 6.515625-4.445312 4.339844-7.816406-6.921876-10.710938-19.078126-17.816406-32.914063-17.816406zm-196.183594-153.292969c-13.835937 0-25.988281 7.105469-32.910156 17.816406-2.179687 3.371094.324219 7.816406 4.335937 7.816406h57.148438c4.011719 0 6.511719-4.445312 4.335938-7.816406-6.921876-10.710937-19.074219-17.816406-32.910157-17.816406zm246.304688 287.820312c-12.816407 0-24.546875 4.574219-33.609375 12.152344-5.015625-2.3125-10.609375-3.605469-16.511719-3.605469-13.835937 0-25.988281 7.105469-32.910156 17.816406-2.179688 3.371094.324219 7.816407 4.335937 7.816407h119.804688c3.878906 0 6.375-4.175781 4.488281-7.5625-8.839844-15.863281-25.945313-26.617188-45.597656-26.617188zm0 0" fill="#ecb700"/></svg>